<?xml version="1.0" standalone="yes"?>
<svg xmlns="http://www.w3.org/2000/svg" width="269" height="269">
<path style="fill:#030202; stroke:none;" d="M0 0L0 269L269 269L269 0L0 0z"/>
<path style="fill:#8e6432; stroke:none;" d="M129 3L129 4L144 4L129 3M119 4L119 5L123 5L119 4z"/>
<path style="fill:#9e9e9e; stroke:none;" d="M123 4L123 5L147 5L123 4z"/>
<path style="fill:#8e6432; stroke:none;" d="M147 4L147 5L151 5L147 4z"/>
<path style="fill:#9e9e9e; stroke:none;" d="M111 6L111 7L121 6L111 6z"/>
<path style="fill:#8e6432; stroke:none;" d="M114.667 5.33334L115.333 5.66666L114.667 5.33334z"/>
<path style="fill:#fdfdfd; stroke:none;" d="M155 79C127.492 79.5678 91.9437 83.5614 71.0401 103.174C46.7833 125.932 47.6637 175.128 78 192.123C95.1903 201.754 121.844 201.082 139 191.561C145.657 187.866 153.03 178.108 159.96 176.207C163.013 175.369 164.927 178.983 166.424 181.002C170.244 186.149 175.111 193.067 181 195.971C190.16 200.489 207.971 180.831 213.513 174.576C221.044 166.075 203.314 148.618 202.174 138C199.724 115.201 202 90.9388 202 68C202 51.1485 200.183 33.2686 186.985 21.1736C161.771 -1.935 110.985 -0.704437 84 18.5802C74.8219 25.1392 55.3824 45.4776 60.7569 58.8912C63.7313 66.3144 83.3389 64.5256 90 65.1698C93.1346 65.4729 96.844 66.7177 99.7755 64.9715C107.088 60.6157 107.379 48.6236 116 43.4823C128.147 36.238 146.816 39.2305 152.728 53C156.181 61.0424 155 70.4579 155 79z"/>
<path style="fill:#9e9e9e; stroke:none;" d="M149 5L149 6L154 6L149 5z"/>
<path style="fill:#8e6432; stroke:none;" d="M154 5L154 6L157 6L154 5M110 6L111 7L110 6z"/>
<path style="fill:#9e9e9e; stroke:none;" d="M155 6L155 7L158 7L155 6z"/>
<path style="fill:#8e6432; stroke:none;" d="M158 6L158 7L161 7L158 6M105.667 7.33334L106.333 7.66666L105.667 7.33334z"/>
<path style="fill:#9e9e9e; stroke:none;" d="M107 7L107 8L110 8L107 7M159 7L159 8L162 8L159 7z"/>
<path style="fill:#8e6432; stroke:none;" d="M162.667 7.33334L163.333 7.66666L162.667 7.33334M102.667 8.33334L103.333 8.66666L102.667 8.33334z"/>
<path style="fill:#9e9e9e; stroke:none;" d="M104.667 8.33334L105.333 8.66666L104.667 8.33334M163 8L163 9L166 9L163 8z"/>
<path style="fill:#8e6432; stroke:none;" d="M166 8L167 9L166 8M99 9L100 10L99 9z"/>
<path style="fill:#9e9e9e; stroke:none;" d="M100.667 9.33334L101.333 9.66666L100.667 9.33334M167 9L167 10L171 11L171 10L167 9z"/>
<path style="fill:#8e6432; stroke:none;" d="M169.667 9.33334L170.333 9.66666L169.667 9.33334M96.6667 10.3333L97.3333 10.6667L96.6667 10.3333z"/>
<path style="fill:#9e9e9e; stroke:none;" d="M98.6667 10.3333L99.3333 10.6667L98.6667 10.3333z"/>
<path style="fill:#8e6432; stroke:none;" d="M171 10L171 11L174 12L171 10M94 11L95 12L94 11z"/>
<path style="fill:#9e9e9e; stroke:none;" d="M95.6667 11.3333L96.3333 11.6667L95.6667 11.3333M172 11L173 12L172 11z"/>
<path style="fill:#8e6432; stroke:none;" d="M92 12L93 13L92 12z"/>
<path style="fill:#9e9e9e; stroke:none;" d="M93.6667 12.3333L94.3333 12.6667L93.6667 12.3333M174 12L175 13L174 12z"/>
<path style="fill:#8e6432; stroke:none;" d="M175 12L176 13L175 12M88 15L91 14L88 15z"/>
<path style="fill:#9e9e9e; stroke:none;" d="M91.6667 13.3333L92.3333 13.6667L91.6667 13.3333M176 13L177 14L176 13z"/>
<path style="fill:#8e6432; stroke:none;" d="M177 13L178 14L177 13z"/>
<path style="fill:#9e9e9e; stroke:none;" d="M89 14L90 15L89 14M178 14L181 16L181 15L178 14z"/>
<path style="fill:#8e6432; stroke:none;" d="M179 14L180 15L179 14M86 15L81 20L86 15z"/>
<path style="fill:#9e9e9e; stroke:none;" d="M87.6667 15.3333L88.3333 15.6667L87.6667 15.3333M86 16L87 17L86 16M181 16L192 26L181 16z"/>
<path style="fill:#8e6432; stroke:none;" d="M182 16L183 17L182 16z"/>
<path style="fill:#9e9e9e; stroke:none;" d="M85 17L86 18L85 17M83.6667 18.3333L84.3333 18.6667L83.6667 18.3333z"/>
<path style="fill:#8e6432; stroke:none;" d="M185 18L186 19L185 18z"/>
<path style="fill:#9e9e9e; stroke:none;" d="M82 19L83 20L82 19z"/>
<path style="fill:#8e6432; stroke:none;" d="M186 19L187 20L186 19M79 20L71 29L79 20z"/>
<path style="fill:#9e9e9e; stroke:none;" d="M80.6667 20.3333L81.3333 20.6667L80.6667 20.3333z"/>
<path style="fill:#8e6432; stroke:none;" d="M187 20L188 21L187 20z"/>
<path style="fill:#9e9e9e; stroke:none;" d="M79 21L80 22L79 21z"/>
<path style="fill:#8e6432; stroke:none;" d="M188 21L189 22L188 21z"/>
<path style="fill:#9e9e9e; stroke:none;" d="M78 22L79 23L78 22z"/>
<path style="fill:#8e6432; stroke:none;" d="M189 22L190 23L189 22z"/>
<path style="fill:#9e9e9e; stroke:none;" d="M77 23L78 24L77 23z"/>
<path style="fill:#8e6432; stroke:none;" d="M190 23L191 24L190 23z"/>
<path style="fill:#9e9e9e; stroke:none;" d="M76 24L77 25L76 24z"/>
<path style="fill:#8e6432; stroke:none;" d="M191 24L192 25L191 24z"/>
<path style="fill:#9e9e9e; stroke:none;" d="M75 25L76 26L75 25z"/>
<path style="fill:#8e6432; stroke:none;" d="M192 25L195 29L192 25z"/>
<path style="fill:#9e9e9e; stroke:none;" d="M74 26L75 27L74 26M73 27L74 28L73 27M192 27L193 28L192 27M72 28L73 29L72 28M193 28L194 29L193 28M71 29L72 30L71 29M194 29L196 34L197 34L194 29M70 30L69 33L70 30z"/>
<path style="fill:#8e6432; stroke:none;" d="M195 30L196 31L195 30M69 31L70 32L69 31M196 31L197 32L196 31M68 32L66 36L68 32M197.333 33.6667L197.667 34.3333L197.333 33.6667z"/>
<path style="fill:#9e9e9e; stroke:none;" d="M68 34L69 35L68 34M67 35L68 36L67 35M197 35L200 47L201 47L197 35M66 36L65 40L66 40L66 36z"/>
<path style="fill:#8e6432; stroke:none;" d="M198 36L199 37L198 36M65 37L66 38L65 37M199 37L199 40L200 40L199 37M64.3333 39.6667L64.6667 40.3333L64.3333 39.6667z"/>
<path style="fill:#9e9e9e; stroke:none;" d="M123 40L123 41L127 41L123 40z"/>
<path style="fill:#8e6432; stroke:none;" d="M127 40L127 41L135 41L127 40z"/>
<path style="fill:#9e9e9e; stroke:none;" d="M135 40L135 41L139 41L135 40z"/>
<path style="fill:#8e6432; stroke:none;" d="M200 40L200 43L201 43L200 40z"/>
<path style="fill:#9e9e9e; stroke:none;" d="M64 41L65 42L64 41M117 42L117 43L122 42L117 42z"/>
<path style="fill:#8e6432; stroke:none;" d="M122 41L122 42L125 42L122 41M138.667 41.3333L139.333 41.6667L138.667 41.3333z"/>
<path style="fill:#9e9e9e; stroke:none;" d="M140.667 41.3333L141.333 41.6667L140.667 41.3333z"/>
<path style="fill:#8e6432; stroke:none;" d="M63 42L62 46L63 46L63 42M119 42L120 43L119 42M141.667 42.3333L142.333 42.6667L141.667 42.3333z"/>
<path style="fill:#9e9e9e; stroke:none;" d="M143 42L143 43L150 48L143 42M63.3333 43.6667L63.6667 44.3333L63.3333 43.6667M115 43L114 45L115 43z"/>
<path style="fill:#8e6432; stroke:none;" d="M116 43L117 44L116 43M144 43L145 44L144 43M115 44L116 45L115 44M145 44L146 45L145 44M201 44L201 48L202 48L201 44z"/>
<path style="fill:#9e9e9e; stroke:none;" d="M112 45L106 53L107 53L112 45z"/>
<path style="fill:#8e6432; stroke:none;" d="M113.667 45.3333L114.333 45.6667L113.667 45.3333M146 45L147 46L146 45z"/>
<path style="fill:#9e9e9e; stroke:none;" d="M62 46L60 54L61 54L62 46z"/>
<path style="fill:#8e6432; stroke:none;" d="M112 46L113 47L112 46M147 46L148 47L147 46M61 47L62 48L61 47M111 47L112 48L111 47M148 47L149 48L148 47M110 48L111 49L110 48z"/>
<path style="fill:#9e9e9e; stroke:none;" d="M150 48L151 51L152 51L150 48M201 48L201 54L202 54L201 48z"/>
<path style="fill:#8e6432; stroke:none;" d="M60.3333 49.6667L60.6667 50.3333L60.3333 49.6667M109 49L110 50L109 49M150 49L151 50L150 49M108.333 50.6667L108.667 51.3333L108.333 50.6667M151 51L152 55L153 55L151 51M107 52L108 53L107 52z"/>
<path style="fill:#9e9e9e; stroke:none;" d="M152 52L153 53L152 52z"/>
<path style="fill:#8e6432; stroke:none;" d="M59 53L59 56L60 56L59 53M106 53L107 54L106 53M202 53L202 59L203 59L202 53z"/>
<path style="fill:#9e9e9e; stroke:none;" d="M105 54L106 55L105 54M153.333 54.6667L153.667 55.3333L153.333 54.6667z"/>
<path style="fill:#8e6432; stroke:none;" d="M105.333 55.6667L105.667 56.3333L105.333 55.6667z"/>
<path style="fill:#9e9e9e; stroke:none;" d="M59.3333 56.6667L59.6667 57.3333L59.3333 56.6667z"/>
<path style="fill:#8e6432; stroke:none;" d="M153 56L153 59L154 59L153 56z"/>
<path style="fill:#9e9e9e; stroke:none;" d="M104 57L105 58L104 57z"/>
<path style="fill:#8e6432; stroke:none;" d="M59 58L60 62L61 62L59 58M104 58L104 61L105 61L104 58z"/>
<path style="fill:#9e9e9e; stroke:none;" d="M154 58L154 62L155 62L154 58M60.3333 59.6667L60.6667 60.3333L60.3333 59.6667M103 59L100 66L103 59M202 59L202 141L203 141L203 84L202 59M61 61L62 62L61 61M62 62L64 64L64 62L62 62z"/>
<path style="fill:#8e6432; stroke:none;" d="M103 62L104 63L103 62M154 62L154 78L155 78L154 62M64 63L65 64L64 63z"/>
<path style="fill:#9e9e9e; stroke:none;" d="M65 63L65 64L71 64L65 63z"/>
<path style="fill:#8e6432; stroke:none;" d="M68 64L69 65L68 64M70 64L70 65L75 65L70 64z"/>
<path style="fill:#9e9e9e; stroke:none;" d="M75 64L75 65L82 65L75 64z"/>
<path style="fill:#8e6432; stroke:none;" d="M102 64L103 65L102 64M79 65L79 66L86 66L79 65z"/>
<path style="fill:#9e9e9e; stroke:none;" d="M86 65L86 66L93 66L86 65z"/>
<path style="fill:#8e6432; stroke:none;" d="M101 65L102 66L101 65M203 65L204 66L203 65M89 66L89 67L94 67L89 66z"/>
<path style="fill:#9e9e9e; stroke:none;" d="M94 66L94 67L99 67L94 66z"/>
<path style="fill:#8e6432; stroke:none;" d="M99 66L100 67L99 66M98 67L99 68L98 67M144 78L145 79L144 78M147 78L147 79L151 79L147 78z"/>
<path style="fill:#9e9e9e; stroke:none;" d="M151 78L151 79L155 79L151 78z"/>
<path style="fill:#8e6432; stroke:none;" d="M136 79L130 80L130 81L137 80L136 79M138 79L138 80L143 80L138 79z"/>
<path style="fill:#9e9e9e; stroke:none;" d="M143 79L143 80L149 80L143 79M136 80L136 81L140 81L136 80z"/>
<path style="fill:#8e6432; stroke:none;" d="M119 81L119 82L125 82L119 81z"/>
<path style="fill:#9e9e9e; stroke:none;" d="M125 81L125 82L130 82L125 81z"/>
<path style="fill:#8e6432; stroke:none;" d="M114 82L114 83L118 83L114 82z"/>
<path style="fill:#9e9e9e; stroke:none;" d="M118 82L118 83L122 83L118 82z"/>
<path style="fill:#8e6432; stroke:none;" d="M109 83L109 84L112 84L109 83z"/>
<path style="fill:#9e9e9e; stroke:none;" d="M112 83L112 84L116 84L112 83z"/>
<path style="fill:#8e6432; stroke:none;" d="M106.667 84.3333L107.333 84.6667L106.667 84.3333z"/>
<path style="fill:#9e9e9e; stroke:none;" d="M108 84L108 85L111 85L108 84z"/>
<path style="fill:#8e6432; stroke:none;" d="M102.667 85.3333L103.333 85.6667L102.667 85.3333z"/>
<path style="fill:#9e9e9e; stroke:none;" d="M104 85L104 86L108 86L104 85z"/>
<path style="fill:#8e6432; stroke:none;" d="M99.6667 86.3333L100.333 86.6667L99.6667 86.3333z"/>
<path style="fill:#9e9e9e; stroke:none;" d="M101 86L101 87L104 87L101 86z"/>
<path style="fill:#8e6432; stroke:none;" d="M95.6667 87.3333L96.3333 87.6667L95.6667 87.3333z"/>
<path style="fill:#9e9e9e; stroke:none;" d="M97 87L97 88L100 88L97 87z"/>
<path style="fill:#8e6432; stroke:none;" d="M90 89L90 90L94 89L90 89z"/>
<path style="fill:#9e9e9e; stroke:none;" d="M94.6667 88.3333L95.3333 88.6667L94.6667 88.3333M92 89L93 90L92 89z"/>
<path style="fill:#8e6432; stroke:none;" d="M88 90L77 98L89 91L88 90z"/>
<path style="fill:#9e9e9e; stroke:none;" d="M89.6667 90.3333L90.3333 90.6667L89.6667 90.3333M88 91L89 92L88 91M86 92L87 93L86 92M83.6667 93.3333L84.3333 93.6667L83.6667 93.3333M82 94L83 95L82 94M80.6667 95.3333L81.3333 95.6667L80.6667 95.3333M79 96L80 97L79 96M78 97L79 98L78 97z"/>
<path style="fill:#8e6432; stroke:none;" d="M75 98L71 102L76 99L75 98z"/>
<path style="fill:#9e9e9e; stroke:none;" d="M76 98L77 99L76 98M75 99L76 100L75 99M73.6667 100.333L74.3333 100.667L73.6667 100.333M72 101L73 102L72 101z"/>
<path style="fill:#8e6432; stroke:none;" d="M203 101L203 110L204 110L203 101z"/>
<path style="fill:#9e9e9e; stroke:none;" d="M71 102L72 103L71 102z"/>
<path style="fill:#8e6432; stroke:none;" d="M70 103L71 104L70 103z"/>
<path style="fill:#9e9e9e; stroke:none;" d="M69 104L70 105L69 104M68 105L69 106L68 105M141 105L141 106L155 106L141 105z"/>
<path style="fill:#8e6432; stroke:none;" d="M66 106L64 110L66 106z"/>
<path style="fill:#9e9e9e; stroke:none;" d="M67 106L68 107L67 106M130 107L130 108L140 107L130 107z"/>
<path style="fill:#8e6432; stroke:none;" d="M140 106L140 107L144 107L140 106z"/>
<path style="fill:#030202; stroke:none;" d="M154 106C145.259 106.006 136.468 107.187 128 109.378C122.489 110.804 117.259 113.214 113.093 117.185C104.456 125.419 101.402 141.845 106.529 152.83C112.268 165.126 128.447 167.472 138.714 159.377C141.983 156.8 144.822 153.527 146.985 149.985C150.065 144.94 151.742 139.792 152.75 134C154.368 124.707 154 115.403 154 106z"/>
<path style="fill:#8e6432; stroke:none;" d="M154 106L154 126L155 126L154 106M134 107L134 108L137 108L134 107z"/>
<path style="fill:#9e9e9e; stroke:none;" d="M66 108L67 109L66 108M127.667 108.333L128.333 108.667L127.667 108.333z"/>
<path style="fill:#8e6432; stroke:none;" d="M129 108L129 109L132 109L129 108z"/>
<path style="fill:#9e9e9e; stroke:none;" d="M65 109L66 110L65 109M124.667 109.333L125.333 109.667L124.667 109.333z"/>
<path style="fill:#8e6432; stroke:none;" d="M126.667 109.333L127.333 109.667L126.667 109.333z"/>
<path style="fill:#9e9e9e; stroke:none;" d="M64 110L61 116L62 116L64 110M122 110L123 111L122 110z"/>
<path style="fill:#8e6432; stroke:none;" d="M123 110L124 111L123 110M63 111L64 112L63 111z"/>
<path style="fill:#9e9e9e; stroke:none;" d="M115 115L121 112L115 115z"/>
<path style="fill:#8e6432; stroke:none;" d="M121 111L122 112L121 111M62 112L63 113L62 112M119 112L120 113L119 112M117 113L118 114L117 113M61 114L62 115L61 114M116 114L117 115L116 114M60 115L59 119L60 119L60 115z"/>
<path style="fill:#9e9e9e; stroke:none;" d="M113 115L110 119L113 115z"/>
<path style="fill:#8e6432; stroke:none;" d="M114 115L115 116L114 115M113 116L114 117L113 116z"/>
<path style="fill:#9e9e9e; stroke:none;" d="M60 117L61 118L60 117z"/>
<path style="fill:#8e6432; stroke:none;" d="M112 117L113 118L112 117M111 118L112 119L111 118z"/>
<path style="fill:#9e9e9e; stroke:none;" d="M59.3333 119.667L59.6667 120.333L59.3333 119.667z"/>
<path style="fill:#8e6432; stroke:none;" d="M110 119L111 120L110 119M58 120L57 124L58 124L58 120z"/>
<path style="fill:#9e9e9e; stroke:none;" d="M109 120L107 123L109 120z"/>
<path style="fill:#8e6432; stroke:none;" d="M109 121L110 122L109 121z"/>
<path style="fill:#9e9e9e; stroke:none;" d="M58 122L59 123L58 122z"/>
<path style="fill:#8e6432; stroke:none;" d="M108 122L109 123L108 122M107.333 123.667L107.667 124.333L107.333 123.667z"/>
<path style="fill:#9e9e9e; stroke:none;" d="M57.3333 124.667L57.6667 125.333L57.3333 124.667M106 124L105 128L106 128L106 124z"/>
<path style="fill:#8e6432; stroke:none;" d="M56.3333 125.667L56.6667 126.333L56.3333 125.667M106 126L107 127L106 126z"/>
<path style="fill:#9e9e9e; stroke:none;" d="M154 126L154 132L155 132L154 126M56 127L55 133L56 133L56 127z"/>
<path style="fill:#8e6432; stroke:none;" d="M55.3333 128.667L55.6667 129.333L55.3333 128.667M105.333 128.667L105.667 129.333L105.333 128.667z"/>
<path style="fill:#9e9e9e; stroke:none;" d="M104 129L104 132L105 132L104 129z"/>
<path style="fill:#8e6432; stroke:none;" d="M153 129L153 134L154 134L153 129M54 132L54 135L55 135L54 132M104 132L104 137L105 137L104 132z"/>
<path style="fill:#9e9e9e; stroke:none;" d="M153 134L152 141L153 141L153 134M54 135L54 139L55 139L54 135M103 135L103 145L104 145L103 135z"/>
<path style="fill:#8e6432; stroke:none;" d="M152 135L152 138L153 138L152 135M203 135L204 136L203 135M53 137L53 152L54 152L53 137M104 138L105 139L104 138M151.333 140.667L151.667 141.333L151.333 140.667M203 140L203 143L204 143L203 140M104 142L104 147L105 147L104 142z"/>
<path style="fill:#9e9e9e; stroke:none;" d="M151.333 142.667L151.667 143.333L151.333 142.667z"/>
<path style="fill:#8e6432; stroke:none;" d="M150 143L140 159C144.492 155.76 150.977 148.979 150 143z"/>
<path style="fill:#9e9e9e; stroke:none;" d="M203.333 143.667L203.667 144.333L203.333 143.667z"/>
<path style="fill:#8e6432; stroke:none;" d="M204.333 144.667L204.667 145.333L204.333 144.667z"/>
<path style="fill:#9e9e9e; stroke:none;" d="M150.333 145.667L150.667 146.333L150.333 145.667M204.333 146.667L204.667 147.333L204.333 146.667M104 147L104 150L105 150L104 147M149.333 147.667L149.667 148.333L149.333 147.667z"/>
<path style="fill:#8e6432; stroke:none;" d="M205.333 147.667L205.667 148.333L205.333 147.667z"/>
<path style="fill:#9e9e9e; stroke:none;" d="M148 149L149 150L148 149M205 149L207 152L205 149z"/>
<path style="fill:#8e6432; stroke:none;" d="M105 150L106 151L105 150z"/>
<path style="fill:#9e9e9e; stroke:none;" d="M147.333 150.667L147.667 151.333L147.333 150.667z"/>
<path style="fill:#8e6432; stroke:none;" d="M206 150L207 151L206 150z"/>
<path style="fill:#9e9e9e; stroke:none;" d="M105.333 151.667L105.667 152.333L105.333 151.667z"/>
<path style="fill:#8e6432; stroke:none;" d="M207.333 151.667L207.667 152.333L207.333 151.667z"/>
<path style="fill:#9e9e9e; stroke:none;" d="M146 152L147 153L146 152M54 153L54 158L55 158L54 153z"/>
<path style="fill:#8e6432; stroke:none;" d="M106 153L107 154L106 153z"/>
<path style="fill:#9e9e9e; stroke:none;" d="M207 153L208 154L207 153M106 154L107 155L106 154M145 154L146 155L145 154z"/>
<path style="fill:#8e6432; stroke:none;" d="M208 154L210 156L208 154M107 155L110 158L107 155z"/>
<path style="fill:#9e9e9e; stroke:none;" d="M144 155L145 156L144 155M208 155L209 156L208 155M107 156L108 157L107 156M143 156L144 157L143 156M209 156L212 160L209 156M108 157L109 158L108 157M142 157L143 158L142 157z"/>
<path style="fill:#8e6432; stroke:none;" d="M210 157L211 158L210 157M54 158L54 161L55 161L54 158z"/>
<path style="fill:#9e9e9e; stroke:none;" d="M109 158L111 161L109 158M141 158L142 159L141 158z"/>
<path style="fill:#8e6432; stroke:none;" d="M211 158L212 159L211 158M110 159L111 160L110 159M139 159L140 160L139 159z"/>
<path style="fill:#9e9e9e; stroke:none;" d="M55.3333 160.667L55.6667 161.333L55.3333 160.667z"/>
<path style="fill:#8e6432; stroke:none;" d="M111 160L111 161L116 163L116 162L111 160M137 160L138 161L137 160z"/>
<path style="fill:#9e9e9e; stroke:none;" d="M138 160L139 161L138 160M212 160L213 161L212 160z"/>
<path style="fill:#8e6432; stroke:none;" d="M213 160L215 163L213 160z"/>
<path style="fill:#9e9e9e; stroke:none;" d="M112 161L113 162L112 161z"/>
<path style="fill:#8e6432; stroke:none;" d="M135 161L136 162L135 161z"/>
<path style="fill:#9e9e9e; stroke:none;" d="M136.667 161.333L137.333 161.667L136.667 161.333z"/>
<path style="fill:#8e6432; stroke:none;" d="M55.3333 162.667L55.6667 163.333L55.3333 162.667z"/>
<path style="fill:#9e9e9e; stroke:none;" d="M114 162L115 163L114 162z"/>
<path style="fill:#8e6432; stroke:none;" d="M133 162L134 163L133 162z"/>
<path style="fill:#9e9e9e; stroke:none;" d="M134.667 162.333L135.333 162.667L134.667 162.333M213 162L214 163L213 162M115 163L115 164L121 165L121 164L115 163z"/>
<path style="fill:#8e6432; stroke:none;" d="M117 163L118 164L117 163M131 163L132 164L131 163z"/>
<path style="fill:#9e9e9e; stroke:none;" d="M132.667 163.333L133.333 163.667L132.667 163.333M214 163L216 166L214 163M56 164L57 168L58 168L56 164z"/>
<path style="fill:#8e6432; stroke:none;" d="M121 164L121 165L128 165L121 164z"/>
<path style="fill:#9e9e9e; stroke:none;" d="M128 164L128 165L132 165L128 164z"/>
<path style="fill:#8e6432; stroke:none;" d="M215 164L216 165L215 164z"/>
<path style="fill:#9e9e9e; stroke:none;" d="M122 165L122 166L127 166L122 165z"/>
<path style="fill:#8e6432; stroke:none;" d="M56 166L57 167L56 166z"/>
<path style="fill:#9e9e9e; stroke:none;" d="M216 166L216 169L217 169L216 166z"/>
<path style="fill:#8e6432; stroke:none;" d="M217 167L215 174L217 167M57.3333 168.667L57.6667 169.333L57.3333 168.667z"/>
<path style="fill:#9e9e9e; stroke:none;" d="M58 169L59 173L60 173L58 169z"/>
<path style="fill:#8e6432; stroke:none;" d="M58 171L59 172L58 171z"/>
<path style="fill:#9e9e9e; stroke:none;" d="M216 171L217 172L216 171M215 172L216 173L215 172z"/>
<path style="fill:#8e6432; stroke:none;" d="M59.3333 173.667L59.6667 174.333L59.3333 173.667z"/>
<path style="fill:#9e9e9e; stroke:none;" d="M214.333 173.667L214.667 174.333L214.333 173.667M60 174L64 181L65 181L60 174M147 187L162 175L169 184C161.383 171.661 154.896 176.675 147 187z"/>
<path style="fill:#8e6432; stroke:none;" d="M160.667 175.333L161.333 175.667L160.667 175.333z"/>
<path style="fill:#9e9e9e; stroke:none;" d="M209 179L214 176L209 179z"/>
<path style="fill:#8e6432; stroke:none;" d="M60 176L61 177L60 176M162 176L163 177L162 176M61 177L62 178L61 177M158 177L159 178L158 177M211 177L212 178L211 177M62.3333 178.667L62.6667 179.333L62.3333 178.667M157 178L158 179L157 178M163 178L164 179L163 178M210 178L211 179L210 178M156 179L157 180L156 179M164 179L165 180L164 179z"/>
<path style="fill:#9e9e9e; stroke:none;" d="M208 179L206 182L208 179z"/>
<path style="fill:#8e6432; stroke:none;" d="M63 180L64 181L63 180M155 180L156 181L155 180M208 180L209 181L208 180M64 181L66 184L64 181M154 181L155 182L154 181M165 181L166 182L165 181M207 181L208 182L207 181z"/>
<path style="fill:#9e9e9e; stroke:none;" d="M65 182L66 183L65 182z"/>
<path style="fill:#8e6432; stroke:none;" d="M153 182L154 183L153 182M166 182L167 183L166 182z"/>
<path style="fill:#9e9e9e; stroke:none;" d="M205 182L206 183L205 182M66 183L67 184L66 183z"/>
<path style="fill:#8e6432; stroke:none;" d="M152 183L153 184L152 183M167 183L168 184L167 183z"/>
<path style="fill:#9e9e9e; stroke:none;" d="M203 183L193 193L203 183z"/>
<path style="fill:#8e6432; stroke:none;" d="M204 183L205 184L204 183z"/>
<path style="fill:#9e9e9e; stroke:none;" d="M67 184L74 190L74 189L67 184z"/>
<path style="fill:#8e6432; stroke:none;" d="M150 184L151 185L150 184M168 184L169 185L168 184M203 184L204 185L203 184M67 185L68 186L67 185M149 185L150 186L149 185z"/>
<path style="fill:#9e9e9e; stroke:none;" d="M169 185L181 197L169 185z"/>
<path style="fill:#8e6432; stroke:none;" d="M202 185L203 186L202 185M68 186L69 187L68 186M148 186L149 187L148 186M169 186L170 187L169 186M201 186L202 187L201 186M69 187L70 188L69 187z"/>
<path style="fill:#9e9e9e; stroke:none;" d="M145 187L144 189L145 187z"/>
<path style="fill:#8e6432; stroke:none;" d="M146 187L147 188L146 187M170 187L171 188L170 187M200 187L201 188L200 187M70 188L71 189L70 188M145 188L146 189L145 188M171 188L172 189L171 188M198 188L199 189L198 188M72 189L73 190L72 189z"/>
<path style="fill:#9e9e9e; stroke:none;" d="M142 189L139 191L139 192L143 190L142 189z"/>
<path style="fill:#8e6432; stroke:none;" d="M143.667 189.333L144.333 189.667L143.667 189.333M172 189L173 190L172 189M197 189L198 190L197 189M73 190L73 191L77 193L73 190z"/>
<path style="fill:#9e9e9e; stroke:none;" d="M75 190L76 191L75 190z"/>
<path style="fill:#8e6432; stroke:none;" d="M142 190L143 191L142 190M173 190L174 191L173 190M196 190L197 191L196 190z"/>
<path style="fill:#9e9e9e; stroke:none;" d="M76 191L77 192L76 191z"/>
<path style="fill:#8e6432; stroke:none;" d="M140 191L141 192L140 191M174 191L175 192L174 191M195 191L196 192L195 191z"/>
<path style="fill:#9e9e9e; stroke:none;" d="M77 192L77 193L81 194L81 193L77 192M137 192L138 193L137 192z"/>
<path style="fill:#8e6432; stroke:none;" d="M138.667 192.333L139.333 192.667L138.667 192.333M175 192L176 193L175 192M194 192L195 193L194 192M78 193L79 194L78 193z"/>
<path style="fill:#9e9e9e; stroke:none;" d="M135 193L136 194L135 193z"/>
<path style="fill:#8e6432; stroke:none;" d="M136.667 193.333L137.333 193.667L136.667 193.333M176 193L177 194L176 193z"/>
<path style="fill:#9e9e9e; stroke:none;" d="M192 193L193 194L192 193z"/>
<path style="fill:#8e6432; stroke:none;" d="M80.6667 194.333L81.3333 194.667L80.6667 194.333z"/>
<path style="fill:#9e9e9e; stroke:none;" d="M82 194L83 195L82 194M132.667 194.333L133.333 194.667L132.667 194.333z"/>
<path style="fill:#8e6432; stroke:none;" d="M134.667 194.333L135.333 194.667L134.667 194.333M177 194L178 195L177 194z"/>
<path style="fill:#9e9e9e; stroke:none;" d="M190 194L188 197L190 194z"/>
<path style="fill:#8e6432; stroke:none;" d="M191 194L192 195L191 194M83 195L84 196L83 195z"/>
<path style="fill:#9e9e9e; stroke:none;" d="M84 195L84 196L89 197L89 196L84 195M129.667 195.333L130.333 195.667L129.667 195.333z"/>
<path style="fill:#8e6432; stroke:none;" d="M131.667 195.333L132.333 195.667L131.667 195.333M178 195L179 196L178 195M190 195L191 196L190 195M85.6667 196.333L86.3333 196.667L85.6667 196.333z"/>
<path style="fill:#9e9e9e; stroke:none;" d="M125 196L125 197L128 197L125 196z"/>
<path style="fill:#8e6432; stroke:none;" d="M128 196L129 197L128 196M179 196L180 197L179 196M189 196L190 197L189 196M88 197L88 198L91 198L88 197z"/>
<path style="fill:#9e9e9e; stroke:none;" d="M91.6667 197.333L92.3333 197.667L91.6667 197.333M120 197L120 198L123 198L120 197z"/>
<path style="fill:#8e6432; stroke:none;" d="M123 197L123 198L126 198L123 197M181 197L182 198L181 197z"/>
<path style="fill:#9e9e9e; stroke:none;" d="M182 197L182 198L187 198L182 197z"/>
<path style="fill:#8e6432; stroke:none;" d="M187.667 197.333L188.333 197.667L187.667 197.333M92.6667 198.333L93.3333 198.667L92.6667 198.333z"/>
<path style="fill:#9e9e9e; stroke:none;" d="M94 198L94 199L103 199L94 198M108 198L109 199L108 198M111 198L111 199L119 199L111 198z"/>
<path style="fill:#8e6432; stroke:none;" d="M119 198L119 199L123 199L119 198M183 198L183 199L186 199L183 198M98 199L98 200L115 200L98 199M235 245C240.993 243.317 244.474 238.181 247.546 233C251.326 226.625 259.318 209.356 253.397 202.43C248.671 196.902 234.432 198.454 228 199.289C223.981 199.812 207.846 202.463 208.921 208.725C209.474 211.944 214.992 210.391 217 210.155C223.73 209.363 235.329 206.472 240.643 212.303C247.163 219.458 234.242 236.413 235 245M14.3218 201.136C8.32029 202.418 17.9724 212.114 19.4252 213.576C29.6835 223.897 40.7746 232.917 53 240.819C83.475 260.519 123.33 268.684 159 261.551C179.892 257.373 200.451 249.878 218 237.562C220.99 235.463 241.97 220.286 229.941 217.619C225.661 216.67 220.674 220.484 217 222.219C208.648 226.164 199.882 229.998 191 232.572C163.598 240.513 134.213 243.307 106 238.565C83.6044 234.801 60.9101 227.301 41 216.335C35.1527 213.114 20.9132 199.727 14.3218 201.136z"/>
<path style="fill:#f09818; stroke:none;" d="M210 209C218.402 208.93 236.506 203.733 242.243 212.133C246.986 219.078 238.271 234.901 236 242C245.808 239.427 259.837 212.635 252.258 203.419C244.988 194.579 215.158 199.912 210 209z"/>
<path style="fill:#9e9e9e; stroke:none;" d="M13 202L13 205L14 205L13 202z"/>
<path style="fill:#f09818; stroke:none;" d="M14 202C16.0167 215.307 37.4595 229.323 48 236.046C88.0395 261.586 131.256 268.387 177 255.848C192.43 251.619 208.359 243.785 221 233.985C226.567 229.67 233.121 225.813 231 218C216.28 222.268 202.892 230.323 188 234.573C150 245.416 110.397 243.953 73 231.485C60.6335 227.362 48.3207 222.052 37 215.573C29.3737 211.208 22.4263 204.667 14 202z"/>
<path style="fill:#9e9e9e; stroke:none;" d="M253 204L254 205L253 204M209 208L210 209L209 208M210 209L211 210L210 209M228.667 218.333L229.333 218.667L228.667 218.333M215 224L216 225L215 224M236 240L237 241L236 240M57 241L58 242L57 241M236 242L236 244L238 242L236 242z"/>
</svg>
